<?xml version="1.0" encoding="UTF-8"?>
<svg xmlns="http://www.w3.org/2000/svg" viewBox="0 0 500 500">
  <!-- Cercle extérieur -->
  <circle cx="250" cy="250" r="240" fill="white" stroke="black" stroke-width="10"/>
  
  <!-- Ciel -->
  <path d="M50 250 A 200 200 0 0 1 450 250" fill="#2ABBC7"/>
  
  <!-- Nuages -->
  <path d="M100 150 Q 150 100 200 120 Q 250 80 300 120 Q 350 100 400 150" fill="#FFF4A3" stroke="#F9A825" stroke-width="3"/>
  
  <!-- Montagnes/Collines -->
  <path d="M50 250 Q 150 150 250 200 Q 350 150 450 250" fill="#D84315"/>
  
  <!-- Arbres -->
  <g transform="translate(120, 300) scale(0.8)">
    <rect x="-5" y="0" width="10" height="40" fill="#B71C1C"/>
    <circle cx="0" cy="-20" r="25" fill="#4CAF50"/>
  </g>
  
  <g transform="translate(180, 320) scale(0.6)">
    <rect x="-5" y="0" width="10" height="30" fill="#B71C1C"/>
    <circle cx="0" cy="-15" r="20" fill="#4CAF50"/>
  </g>
  
  <g transform="translate(350, 300) scale(0.7)">
    <rect x="-5" y="0" width="10" height="35" fill="#B71C1C"/>
    <circle cx="0" cy="-18" r="22" fill="#4CAF50"/>
  </g>
  
  <!-- Silhouettes -->
  <g transform="translate(250, 350)">
    <circle cx="-60" cy="-30" r="30" fill="black"/>
    <circle cx="0" cy="-40" r="40" fill="black"/>
    <circle cx="60" cy="-30" r="30" fill="black"/>
  </g>
  
  <!-- Texte ADIRAM -->
  <text x="250" y="400" font-family="Arial" font-size="60" font-weight="bold" text-anchor="middle" fill="white">ADIRAM</text>
  
  <!-- Étoile verte -->
  <polygon points="250,450 260,470 280,470 265,485 270,505 250,495 230,505 235,485 220,470 240,470" fill="#2E7D32"/>
  
  <!-- Texte circulaire -->
  <path id="textPath" d="M250,30 A220,220 0 1,1 249,30" fill="none"/>
  <text font-family="Arial" font-size="24" font-weight="bold">
    <textPath href="#textPath" startOffset="0%">ASSOCIATION POUR LE DÉVELOPPEMENT INTÉGRÉ DES RÉGIONS ARIDES DU MALI</textPath>
  </text>
</svg>